<svg viewBox="0 0 900 480" xmlns="http://www.w3.org/2000/svg" font-family="Segoe UI, Arial, sans-serif">
  <rect width="900" height="480" fill="#0d1117"/>
  <text x="450" y="36" text-anchor="middle" fill="#e6edf3" font-size="18" font-weight="600">CTI / OSINT IOC Enrichment Pipeline</text>
  <text x="450" y="55" text-anchor="middle" fill="#7d8590" font-size="12">Automated IOC triage — 60% faster than manual lookup</text>
  <rect x="330" y="72" width="240" height="58" rx="8" fill="#1f2937" stroke="#6b7280" stroke-width="1.5"/>
  <text x="450" y="97" text-anchor="middle" fill="#e6edf3" font-size="13" font-weight="600">Input IOC</text>
  <text x="450" y="116" text-anchor="middle" fill="#7d8590" font-size="11">IP · Domain · URL · MD5/SHA256 Hash</text>
  <line x1="450" y1="132" x2="450" y2="155" stroke="#6b7280" stroke-width="1.5" marker-end="url(#ag)"/>
  <line x1="450" y1="155" x2="150" y2="155" stroke="#6b7280" stroke-width="1.2"/>
  <line x1="150" y1="155" x2="150" y2="173" stroke="#6b7280" stroke-width="1.2" marker-end="url(#ag)"/>
  <line x1="450" y1="155" x2="450" y2="173" stroke="#6b7280" stroke-width="1.2" marker-end="url(#ag)"/>
  <line x1="450" y1="155" x2="750" y2="155" stroke="#6b7280" stroke-width="1.2"/>
  <line x1="750" y1="155" x2="750" y2="173" stroke="#6b7280" stroke-width="1.2" marker-end="url(#ag)"/>
  <rect x="50" y="175" width="200" height="78" rx="8" fill="#1a1f3a" stroke="#3b82f6" stroke-width="1.5"/>
  <text x="150" y="200" text-anchor="middle" fill="#93c5fd" font-size="13" font-weight="600">VirusTotal API</text>
  <text x="150" y="218" text-anchor="middle" fill="#7d8590" font-size="11">70+ AV engine scan</text>
  <text x="150" y="234" text-anchor="middle" fill="#7d8590" font-size="11">Malicious / Suspicious / Clean</text>
  <text x="150" y="247" text-anchor="middle" fill="#fbbf24" font-size="10">Free: 4 req/min</text>
  <rect x="350" y="175" width="200" height="78" rx="8" fill="#1a1f3a" stroke="#ef4444" stroke-width="1.5"/>
  <text x="450" y="200" text-anchor="middle" fill="#fca5a5" font-size="13" font-weight="600">AbuseIPDB API</text>
  <text x="450" y="218" text-anchor="middle" fill="#7d8590" font-size="11">Abuse confidence score 0-100</text>
  <text x="450" y="234" text-anchor="middle" fill="#7d8590" font-size="11">ISP · Country · Report count</text>
  <text x="450" y="247" text-anchor="middle" fill="#fbbf24" font-size="10">Free: 1000 req/day</text>
  <rect x="650" y="175" width="200" height="78" rx="8" fill="#1a1f3a" stroke="#10b981" stroke-width="1.5"/>
  <text x="750" y="200" text-anchor="middle" fill="#6ee7b7" font-size="13" font-weight="600">MISP Platform</text>
  <text x="750" y="218" text-anchor="middle" fill="#7d8590" font-size="11">Threat actor attribution</text>
  <text x="750" y="234" text-anchor="middle" fill="#7d8590" font-size="11">Known event correlation</text>
  <text x="750" y="247" text-anchor="middle" fill="#fbbf24" font-size="10">Self-hosted / community</text>
  <line x1="150" y1="253" x2="150" y2="308" stroke="#6b7280" stroke-width="1.2"/>
  <line x1="150" y1="308" x2="450" y2="308" stroke="#6b7280" stroke-width="1.2"/>
  <line x1="450" y1="253" x2="450" y2="308" stroke="#6b7280" stroke-width="1.2"/>
  <line x1="750" y1="253" x2="750" y2="308" stroke="#6b7280" stroke-width="1.2"/>
  <line x1="750" y1="308" x2="450" y2="308" stroke="#6b7280" stroke-width="1.2"/>
  <line x1="450" y1="308" x2="450" y2="323" stroke="#6b7280" stroke-width="1.5" marker-end="url(#ag)"/>
  <rect x="280" y="325" width="340" height="68" rx="8" fill="#14532d" stroke="#16a34a" stroke-width="1.5"/>
  <text x="450" y="349" text-anchor="middle" fill="#4ade80" font-size="13" font-weight="600">Verdict Engine</text>
  <text x="450" y="367" text-anchor="middle" fill="#7d8590" font-size="11">Aggregates all source results → Overall priority score</text>
  <text x="310" y="385" fill="#ef4444" font-size="12" font-weight="600">MALICIOUS</text>
  <text x="415" y="385" fill="#f59e0b" font-size="12" font-weight="600">SUSPICIOUS</text>
  <text x="528" y="385" fill="#4ade80" font-size="12" font-weight="600">CLEAN</text>
  <line x1="450" y1="395" x2="450" y2="416" stroke="#6b7280" stroke-width="1.5" marker-end="url(#ag)"/>
  <rect x="250" y="418" width="400" height="46" rx="8" fill="#1f2937" stroke="#6b7280" stroke-width="1.5"/>
  <text x="450" y="440" text-anchor="middle" fill="#e6edf3" font-size="12" font-weight="600">JSON Report saved to reports/</text>
  <text x="450" y="457" text-anchor="middle" fill="#7d8590" font-size="10">Verdict · Priority · Full enrichment · Timestamp</text>
  <defs><marker id="ag" markerWidth="8" markerHeight="8" refX="6" refY="3" orient="auto"><path d="M0,0 L0,6 L8,3 z" fill="#6b7280"/></marker></defs>
</svg>